HIERARCHY
ROOT Hips
{
	OFFSET 0.000000 0.000000 0.000000
	CHANNELS 6 Xposition Yposition Zposition Xrotation Yrotation Zrotation
	JOINT LeftUpLeg_virtual
	{
		OFFSET 0.000000 0.000000 0.000000
		CHANNELS 3 Xrotation Yrotation Zrotation
		JOINT LeftUpLeg
		{
			OFFSET 13.026900 -6.336304 -1.092800
			CHANNELS 3 Xrotation Yrotation Zrotation
			JOINT LeftLeg
			{
				OFFSET 0.524474 -46.096886 9.782700
				CHANNELS 3 Xrotation Yrotation Zrotation
				JOINT LeftFoot
				{
					OFFSET -0.524474 -53.427422 -12.948200
					CHANNELS 3 Xrotation Yrotation Zrotation
					JOINT LeftToeBase
					{
						OFFSET 0.192200 -14.009700 16.364100
						CHANNELS 3 Xrotation Yrotation Zrotation
						JOINT LeftToe_End
						{
							OFFSET -1.784700 -0.561700 9.474800
							CHANNELS 3 Xrotation Yrotation Zrotation
							End Site
							{
								OFFSET 0 0 0
							}
						}
					}
				}
			}
		}
	}
	JOINT RightUpLeg_virtual
	{
		OFFSET 0.000000 0.000000 0.000000
		CHANNELS 3 Xrotation Yrotation Zrotation
		JOINT RightUpLeg
		{
			OFFSET -12.883000 -6.336304 -1.092800
			CHANNELS 3 Xrotation Yrotation Zrotation
			JOINT RightLeg
			{
				OFFSET -0.524587 -46.096825 9.782800
				CHANNELS 3 Xrotation Yrotation Zrotation
				JOINT RightFoot
				{
					OFFSET 0.524587 -53.427383 -12.948300
					CHANNELS 3 Xrotation Yrotation Zrotation
					JOINT RightToeBase
					{
						OFFSET -0.192200 -14.009700 16.364100
						CHANNELS 3 Xrotation Yrotation Zrotation
						JOINT RightToe_End
						{
							OFFSET 1.784700 -0.561700 9.474800
							CHANNELS 3 Xrotation Yrotation Zrotation
							End Site
							{
								OFFSET 0 0 0
							}
						}
					}
				}
			}
		}
	}
	JOINT Spine_virtual
	{
		OFFSET 0.000000 0.000000 0.000000
		CHANNELS 3 Xrotation Yrotation Zrotation
		JOINT Spine
		{
			OFFSET 0.072000 7.257294 -0.789700
			CHANNELS 3 Xrotation Yrotation Zrotation
			JOINT Spine1
			{
				OFFSET 0.000000 12.508769 -0.658067
				CHANNELS 3 Xrotation Yrotation Zrotation
				JOINT Spine1_split
				{
					OFFSET 0.000000 12.508769 -0.658067
					CHANNELS 3 Xrotation Yrotation Zrotation
					JOINT Spine2
					{
						OFFSET 0.000000 12.508769 -0.658067
						CHANNELS 3 Xrotation Yrotation Zrotation
						JOINT Neck_virtual
						{
							OFFSET 0.000000 0.000000 0.000000
							CHANNELS 3 Xrotation Yrotation Zrotation
							JOINT Neck
							{
								OFFSET 0.000000 14.033295 7.520400
								CHANNELS 3 Xrotation Yrotation Zrotation
								JOINT Head
								{
									OFFSET 0.000000 8.198502 5.703100
									CHANNELS 3 Xrotation Yrotation Zrotation
									JOINT HeadTop_End
									{
										OFFSET 0.000000 17.760803 13.332701
										CHANNELS 3 Xrotation Yrotation Zrotation
										End Site
										{
											OFFSET 0 0 0
										}
									}
								}
							}
						}
						JOINT LeftShoulder_virtual
						{
							OFFSET 0.000000 0.000000 0.000000
							CHANNELS 3 Xrotation Yrotation Zrotation
							JOINT LeftShoulder
							{
								OFFSET 6.292450 5.785301 -0.669000
								CHANNELS 3 Xrotation Yrotation Zrotation
								JOINT LeftShoulder_split
								{
									OFFSET 6.292450 5.785301 -0.669000
									CHANNELS 3 Xrotation Yrotation Zrotation
									JOINT LeftArm
									{
										OFFSET 13.907140 -6.093903 1.965100
										CHANNELS 3 Xrotation Yrotation Zrotation
										JOINT LeftForeArm
										{
											OFFSET 34.140198 0.000000 0.000000
											CHANNELS 3 Xrotation Yrotation Zrotation
											JOINT LeftHand
											{
												OFFSET 40.960209 0.000000 0.000000
												CHANNELS 3 Xrotation Yrotation Zrotation
												End Site
												{
													OFFSET 0 0 0
												}
											}
										}
									}
								}
							}
						}
						JOINT RightShoulder_virtual
						{
							OFFSET 0.000000 0.000000 0.000000
							CHANNELS 3 Xrotation Yrotation Zrotation
							JOINT RightShoulder
							{
								OFFSET -6.292450 5.785301 -0.669000
								CHANNELS 3 Xrotation Yrotation Zrotation
								JOINT RightShoulder_split
								{
									OFFSET -6.292450 5.785301 -0.669000
									CHANNELS 3 Xrotation Yrotation Zrotation
									JOINT RightArm
									{
										OFFSET -13.907140 -6.093903 1.965100
										CHANNELS 3 Xrotation Yrotation Zrotation
										JOINT RightForeArm
										{
											OFFSET -34.140198 0.000000 0.000000
											CHANNELS 3 Xrotation Yrotation Zrotation
											JOINT RightHand
											{
												OFFSET -40.960209 0.000000 0.000000
												CHANNELS 3 Xrotation Yrotation Zrotation
												End Site
												{
													OFFSET 0 0 0
												}
											}
										}
									}
								}
							}
						}
					}
				}
			}
		}
	}
}
MOTION
Frames: 8
Frame Time: 0.03333333
12.929810 90.104919 -4.561523 0.000000 0.000000 0.000000 31.552209 -84.183652 33.263926 -36.481888 -7.037504 23.425734 47.248086 -10.349118 10.642805 -12.445916 -3.727352 -22.859219 -1.768420 0.558852 -1.844881 0.000000 0.000000 0.000000 19.277425 -82.600783 22.013413 -18.770506 6.440611 -24.021844 42.684417 10.960734 -9.866455 -16.612490 -0.379289 26.304375 -15.099357 1.104935 -0.056846 0.000000 0.000000 0.000000 27.416162 -79.269345 28.431820 2.072938 4.829538 2.726523 0.295097 3.445787 1.156813 1.569304 -0.965357 0.719159 0.000000 0.000000 0.000000 0.864244 2.963954 0.949711 -3.468967 7.667789 -1.351304 2.844412 40.821722 -4.980609 0.000000 0.000000 0.000000 0.997785 3.400094 1.108189 1.513666 11.346257 -10.382694 -3.362542 -2.139355 -2.248974 -10.306248 10.431346 -65.207386 -179.046005 -63.195567 -176.969027 0.000000 0.000000 0.000000 1.880290 3.569922 0.643264 1.245122 9.260692 10.087249 0.709098 3.716486 2.575953 -13.286576 34.469499 48.214695 -179.540142 71.126919 179.166968 0.000000 0.000000 0.000000 
13.005646 89.724434 -4.768253 0.000000 0.000000 0.000000 23.212343 -84.135855 25.110581 -36.692746 -6.694898 22.598176 46.709601 -11.568645 11.522135 -12.785183 -5.118722 -22.711279 -2.840974 0.723538 -1.823407 0.000000 0.000000 0.000000 13.335823 -81.184831 16.067151 -17.363077 4.871510 -23.541242 43.108199 9.402726 -9.705689 -16.013109 -1.893915 25.237925 -15.216157 0.785138 1.059415 0.000000 0.000000 0.000000 24.332795 -78.693956 25.159155 1.862145 5.088441 2.622313 0.251014 3.591152 1.131167 1.577173 -1.818193 0.811628 0.000000 0.000000 0.000000 0.776758 3.128938 0.905545 -2.684689 7.179185 -1.406092 3.058364 39.551453 -4.691055 0.000000 0.000000 0.000000 1.014548 3.457963 1.096557 1.381872 11.031854 -9.354221 -2.627402 -1.704161 -3.178377 -8.374847 8.027118 -65.501207 -179.523190 -62.674827 -177.342023 0.000000 0.000000 0.000000 1.615499 3.691871 0.652755 1.304155 8.727915 9.249607 0.445835 4.461546 2.558797 -12.166449 33.159155 48.069478 -178.635606 69.730576 178.155840 0.000000 0.000000 0.000000 
12.922897 93.521072 -5.215076 0.000000 0.000000 0.000000 13.346022 -81.240783 15.345367 -36.443560 -6.005490 20.665299 41.307700 -13.558295 11.505667 -8.995680 -8.188891 -23.732853 -3.036520 0.778014 -1.491218 0.000000 0.000000 0.000000 10.170574 -77.890303 13.038572 -16.068471 2.740029 -22.578008 40.845153 8.299034 -9.473460 -10.572031 -2.081043 25.026315 -18.306874 0.127202 2.692986 0.000000 0.000000 0.000000 18.855314 -76.730495 19.659110 1.446874 5.109625 2.329440 0.061712 3.642128 1.021989 1.272822 -2.581534 0.806516 0.000000 0.000000 0.000000 0.678225 3.183981 0.780548 -1.839749 6.707370 -1.462429 3.158259 37.574845 -3.952547 0.000000 0.000000 0.000000 0.881931 3.448434 0.983931 1.210781 10.241467 -7.960008 -1.551966 -1.028136 -3.709926 -6.532786 4.239342 -63.970486 -179.815781 -61.959890 -177.722642 0.000000 0.000000 0.000000 1.268904 3.679812 0.575259 1.283750 8.121245 8.292721 0.146734 4.890148 2.366190 -10.460694 30.708787 47.408346 -178.399760 67.118951 177.838387 0.000000 0.000000 0.000000 
12.720870 100.399261 -5.897549 0.000000 0.000000 0.000000 9.019092 -76.179846 10.994942 -35.191249 -4.718216 18.196346 32.485937 -15.025912 10.261526 -2.286394 -11.701682 -24.351479 -2.374181 0.739892 -0.970769 0.000000 0.000000 0.000000 8.383611 -73.456335 11.462497 -15.439043 0.553359 -21.316954 37.200297 7.869501 -9.276403 -2.418886 -0.980982 25.710632 -22.653781 -0.853065 4.303497 0.000000 0.000000 0.000000 13.676136 -73.464313 14.708479 1.008756 4.910513 1.926598 -0.170748 3.587629 0.868572 0.833471 -2.629811 0.827324 0.000000 0.000000 0.000000 0.544042 3.128640 0.628709 -1.147900 6.271724 -1.589413 3.093954 35.074172 -2.924921 0.000000 0.000000 0.000000 0.637727 3.375738 0.832779 1.068041 9.070590 -6.570043 -0.466962 -0.337541 -3.902062 -5.036206 -0.285473 -61.157049 -179.859781 -61.306180 -177.959800 0.000000 0.000000 0.000000 0.949940 3.558834 0.442184 1.176775 7.539165 7.339215 -0.291456 4.889468 2.004840 -8.378195 27.417096 46.085137 -178.670276 64.519825 178.042541 0.000000 0.000000 0.000000 
12.320778 108.480728 -6.700291 0.000000 0.000000 0.000000 7.735252 -70.257477 9.574545 -32.937990 -2.526747 15.710147 23.306631 -14.373682 8.408507 4.427603 -13.469253 -22.599515 -1.092825 0.612795 -0.610222 0.000000 0.000000 0.000000 7.057025 -68.334321 10.373520 -15.559873 -1.625921 -19.680903 33.845182 7.159888 -9.022613 4.375747 0.170747 25.554707 -24.694523 -1.847843 5.444953 0.000000 0.000000 0.000000 9.539332 -69.252258 11.072639 0.688319 4.522080 1.558375 -0.295536 3.435450 0.712953 0.332459 -2.029184 0.779009 0.000000 0.000000 0.000000 0.378404 2.971546 0.495589 -0.798903 5.862036 -1.814755 2.848221 32.390806 -1.819819 0.000000 0.000000 0.000000 0.426288 3.234145 0.691579 1.030426 7.644656 -5.677460 0.137555 0.089050 -3.769660 -3.894053 -4.886486 -57.886277 -179.699559 -60.953032 -178.110010 0.000000 0.000000 0.000000 0.765245 3.376635 0.320812 1.019608 7.149020 6.509685 -0.622574 4.641903 1.406552 -6.371317 23.727007 44.378324 -179.193223 62.927994 178.532826 0.000000 0.000000 0.000000 
11.809114 115.749084 -7.378750 0.000000 0.000000 0.000000 7.012480 -64.745091 8.783689 -29.736164 0.401431 13.481101 16.234245 -11.622585 7.100521 8.569808 -12.356517 -18.666591 -0.152937 0.431314 -0.465250 0.000000 0.000000 0.000000 5.500206 -63.195881 9.151928 -16.781023 -3.326709 -17.778653 32.003958 5.655806 -8.742080 7.088682 0.299155 23.159029 -21.341819 -2.300289 5.905401 0.000000 0.000000 0.000000 6.724741 -64.563196 8.852065 0.651670 3.986185 1.258892 -0.218469 3.185899 0.579887 0.556915 -1.307575 0.677549 0.000000 0.000000 0.000000 0.225942 2.699908 0.414163 -0.946086 5.529786 -2.172263 2.345097 29.650305 -0.763850 0.000000 0.000000 0.000000 0.348372 2.983486 0.584289 1.093196 6.129548 -5.487745 0.059388 0.176046 -3.390512 -3.266679 -8.869005 -55.082969 -179.516933 -61.318467 -178.314232 0.000000 0.000000 0.000000 0.770749 3.133369 0.237944 0.845379 6.993691 5.921266 -0.880020 4.317554 0.716412 -4.840976 20.140083 42.587141 -179.760948 62.934319 179.132393 0.000000 0.000000 0.000000 
11.348619 120.887650 -7.866322 0.000000 0.000000 0.000000 6.354555 -60.398864 8.305661 -26.125556 3.432891 11.982180 12.679258 -8.426069 6.539711 9.224014 -9.409106 -15.019041 -0.412368 0.253445 -0.321812 0.000000 0.000000 0.000000 3.975796 -58.172202 7.948013 -19.319772 -4.054016 -16.182386 32.048815 3.573199 -8.222972 5.850072 -0.003941 19.021681 -13.459308 -2.014509 5.644226 0.000000 0.000000 0.000000 5.182619 -59.654995 7.811187 0.801359 3.348099 1.009357 0.110526 2.821864 0.454961 1.128475 -0.587522 0.571293 0.000000 0.000000 0.000000 0.170230 2.334031 0.390474 -1.444903 5.188061 -2.569946 1.680432 27.029483 0.076364 0.000000 0.000000 0.000000 0.444043 2.611846 0.501189 1.199366 4.673964 -5.983471 -0.698105 0.018191 -2.779811 -3.382747 -11.729141 -53.249142 -179.412458 -62.479394 -178.647600 0.000000 0.000000 0.000000 0.926327 2.827540 0.186168 0.739084 7.015702 5.690639 -0.981786 4.007947 -0.035965 -4.038491 17.033425 41.189155 179.739747 64.618439 179.742602 0.000000 0.000000 0.000000 
10.946379 123.810478 -8.084179 0.000000 0.000000 0.000000 5.619017 -57.189396 7.932789 -23.012821 6.067002 11.319464 12.987377 -5.651478 6.207476 7.554298 -5.909750 -12.572246 -1.598525 0.096423 -0.332519 0.000000 0.000000 0.000000 2.949299 -53.853911 7.111380 -23.016243 -3.506489 -15.120750 32.380930 1.724970 -7.599669 3.866961 0.542893 15.039499 -5.215363 -1.299413 4.460473 0.000000 0.000000 0.000000 4.739520 -54.670282 7.402125 0.950077 2.624314 0.791686 0.553876 2.367161 0.314808 1.630221 -0.415457 0.322902 0.000000 0.000000 0.000000 0.259515 1.892843 0.360581 -2.159384 4.850653 -2.884151 0.966302 24.535020 0.686441 0.000000 0.000000 0.000000 0.697280 2.138050 0.394306 1.285655 3.387913 -6.872668 -1.886748 -0.247595 -1.976999 -4.390594 -13.411520 -52.539611 -179.494066 -64.038829 -179.191078 0.000000 0.000000 0.000000 1.164053 2.447829 0.119836 0.688775 7.164003 5.814809 -0.876054 3.805660 -0.679633 -4.046407 14.553262 40.540058 179.333515 67.424513 -179.655080 0.000000 0.000000 0.000000 
